<svg id="Layer_1" data-name="Layer 1" xmlns="http://www.w3.org/2000/svg" viewBox="0 0 317.97 325.48"><defs><style>.cls-1{fill:#9393fe;}.cls-2{fill:#fe4500;}.cls-3{fill:#010101;}</style></defs><path class="cls-1" d="M7186.7,7252.38c-18.08,15.06-36.2,30.06-54.21,45.21-8.86,7.45-17.47,15.18-26.25,22.73-4.08,3.5.54,4.37,1.89,5.81,10.32,11,22.76,20,31.48,32.58,2.11,3,4.18,6.1,2.33,9.55-1.76,3.29-5.7,3.46-8.94,3.18-13.37-1.13-26.77-2.19-40.05-4-16.37-2.29-31.94,2.28-47.8,4.47-10.32,1.42-14.81-2.28-14.62-12.67q.81-44.52,1.93-89a25.64,25.64,0,0,1,1.11-6.36c.75-2.63,1-5.87,4.68-6.26s5.66,2.1,7.13,4.63c6.78,11.63,17.55,19.7,26.16,29.68,2.74,3.17,4.93,2.41,7.78-.38,17.51-17.15,35.39-33.93,52.74-51.24,5.57-5.56,11.29-11.29,14.76-18.66,1.4,1,2.83,2.05,4.21,3.12C7162.92,7233.93,7176.64,7240.79,7186.7,7252.38Z" transform="translate(-7030.52 -7046.67)"/><path class="cls-2" d="M7213.16,7155.06c15.23-21.94,37.48-36.78,56-55.35,2.46-2.46,2.47-3.46-.06-6-11.35-11.3-25-19.58-37.67-29.09-3.43-2.56-8-4.61-6.41-10s6.24-5.23,10.64-5.22c33.2.11,66.42,1.3,99.53-2.6,5.86-.69,9.62,1,9.66,8.8.13,27.21.29,54.44,3.12,81.59.85,8.19.34,16.54.25,24.82,0,3.78-2.56,5.82-6.09,6-3.8.16-4-2.47-4.35-5.71-.73-6.61-5.76-11.46-10.31-15.07a170.13,170.13,0,0,1-17.85-16.4c-5.82-6.14-8.76-2.71-12.92,1.09-17.34,15.87-34.81,31.6-52.23,47.38C7232.14,7173.71,7223.32,7163.52,7213.16,7155.06Z" transform="translate(-7030.52 -7046.67)"/><path d="M7213.16,7155.06c10.16,8.46,19,18.65,31.35,24.23,6.09,5.72,13.12,10.17,18.49,17,13.54,17.13,11.34,34.8,5.19,53.86-12.25,38-52.48,31.13-71.36,10.9-3-3.22-6.74-5.77-10.13-8.63-10.06-11.59-23.78-18.45-35.67-27.68-1.38-1.07-2.81-2.08-4.21-3.12-16.27-15.55-11.12-38.26-4.53-52.47,3.43-7.42,7.25-14.36,13.55-19.88,11.15-9.77,25.57-12.21,38.72-5.48C7201,7147,7207,7151.26,7213.16,7155.06Zm-67.71,41.09c-.17,3.88,1.52,7.13,2.83,10.55,4.55,11.89,18.53,12.11,25.88,21.79,8.05,10.61,21,17.28,30.8,27,13.59,13.49,41.41,20.23,51.72-3.41,9-20.61,11-41.74-9.38-57.89-9.3-7.37-19.58-13.57-28.53-21.33-8.16-7.07-16.07-14.26-25.9-18.94-9-4.28-18-6.87-27.08-.18C7151.47,7164.3,7147.91,7180,7145.45,7196.15Z" transform="translate(-7030.52 -7046.67)"/><path class="cls-3" d="M7204.92,7182.74c-6.25-.82-13-6.79-18.6-.68-6.3,6.92-14.11,11.87-20.67,18.34-2.18,2.16-4.81,4.53-7.64,1.36-2.67-3-1.26-5.58,1.7-7.95,5.06-4.05,9.88-8.38,14.66-12.76,1.24-1.13,1.93-2.86,2.87-4.32a26.06,26.06,0,0,0-4.56-1.84c-3.52-.7-7.79-1.15-7-5.88.78-4.57,4.74-3.47,8.1-2.74,10.34,2.26,20.72,4.33,31,6.65,3.07.69,5,2.84,4.63,6.18C7209.19,7181.61,7207.46,7182.8,7204.92,7182.74Z" transform="translate(-7030.52 -7046.67)"/><path class="cls-3" d="M7254.27,7221.7c-.39,2.49-.77,4.31-2.91,4.91-1.91.53-3.87.25-4.84-1.55-4.48-8.33-9.13-4.4-13.83-.35q-7.29,6.3-14.57,12.6c-2.12,1.84-4.47,2.68-6.59.39s-1-4.77.93-6.59c4.87-4.68,9.37-10.08,15-13.53,8-4.87,5.21-8.81.36-13.21a14.35,14.35,0,0,1-4.35-8.15,3.69,3.69,0,0,1,2.19-4.53c1.81-.72,3.77-.65,5,1.08,6.35,9.14,14,17.09,21.72,25.07C7253.43,7219,7253.8,7220.71,7254.27,7221.7Z" transform="translate(-7030.52 -7046.67)"/><path class="cls-3" d="M7201.42,7223.6c-5.91.35-6.28-3.91-7.22-7-1.23-4-2.88-5.11-7-3.7-3.31,1.14-7.86,2.5-9.07-2.67s3.66-5.27,6.8-5.7c5.91-.81,4.92-4.41,3.9-8.17-.92-3.39-1-6.8,3.1-7.55s5.57,2.85,5.53,6.05c-.09,7.11,4.08,7.34,9.11,6.14a14.09,14.09,0,0,1,8.76.27c2.27.89,3.61,2.42,3.19,5-.38,2.35-2.07,3.28-4.27,3.4a52,52,0,0,0-5.46.2c-4.1.69-10,0-3.85,7.1C7207.58,7220,7204.53,7223,7201.42,7223.6Z" transform="translate(-7030.52 -7046.67)"/></svg>